<svg width="600" height="600" viewBox="0 0 600 600" fill="none" xmlns="http://www.w3.org/2000/svg">
<path d="M535.369 490.463H535.367L535.37 490.466L319.329 490.767H319.038L318.969 490.485L284.436 352.454L284.95 352.493C335.396 356.359 361.224 316.772 367.818 296.769L368.024 296.145L535.369 490.463ZM211.368 288.208C211.719 290.146 212.13 292.03 212.595 293.861C213.541 297.23 214.713 300.578 216.123 303.883C222.997 319.995 234.465 332.738 248.347 341.238C254.664 344.995 260.74 347.479 265.65 348.917L266.042 349.033L209.246 490.32L209.124 490.623L208.809 490.541C176.459 482.164 151.107 467.478 131.353 450.293C109.359 431.562 91.2579 407.593 79.1566 379.229C74.9005 369.253 71.4817 358.692 69.0005 348.488L198.364 293.313L211.284 287.749L211.368 288.208ZM122.501 164.702L221.008 206.537L236.12 212.815L235.636 213.207C230.306 217.532 223.663 226.046 218.46 236.648C213.259 247.247 209.516 259.894 209.943 272.471L209.956 272.832L65.0005 281.488C64.9993 281.543 65.0014 281.434 65.0005 281.488V281.483C70.2181 237.641 90.4045 195.818 122.501 164.702ZM321.376 120.785C362.012 136.588 391.376 157.106 416.359 193.282L353.752 220.066L353.458 220.293C344.459 209.386 335.81 203.128 322.961 198.176L322.958 197.848L321.376 120.785C321.425 120.804 321.328 120.766 321.376 120.785ZM93.0512 202.607C92.2575 203.897 91.4797 205.197 90.7172 206.505C91.4745 205.209 92.2517 203.909 93.0512 202.607ZM236.546 111.183C248.085 109.931 261.102 109.55 274.904 110.642L275.133 110.659L275.219 110.873L308.514 193.386C299.009 190.72 273.199 188.429 252.609 201.167L163.416 134.992L162.93 134.633L163.471 134.362C163.598 134.299 163.727 134.232 163.861 134.164C169.489 131.071 175.325 128.229 181.357 125.655C199.074 118.097 218.343 113.262 236.546 111.183C236.897 111.142 236.194 111.221 236.546 111.183C236.647 111.172 236.445 111.193 236.546 111.183ZM122.501 164.702C122.399 164.802 122.603 164.603 122.501 164.702V164.702Z" fill="url(#paint0_radial_207_2)"/>
<defs>
<radialGradient id="paint0_radial_207_2" cx="0" cy="0" r="1" gradientTransform="matrix(-389.104 170.007 -210.006 -479.582 338.488 268.23)" gradientUnits="userSpaceOnUse">
<stop stop-color="#0AF2AD"/>
<stop offset="1" stop-color="#03B082"/>
</radialGradient>
</defs>
</svg>
