<svg width="600" height="600" viewBox="0 0 600 600" fill="none" xmlns="http://www.w3.org/2000/svg">
<path d="M304.16 104.06L530.094 495.388L534.17 502.447H66L70.0752 495.388L296.009 104.06L300.085 97L304.16 104.06ZM300.055 343.729C279.711 386.775 249.5 423.968 209.674 451.765C173.797 476.805 133.452 491.889 91.1357 497.741H509.861C467.199 491.984 426.519 476.861 390.374 451.634C350.588 423.866 320.398 386.719 300.055 343.729ZM226.616 392.534L225.806 392.188L212.13 386.361L221.609 419.71L222.694 423.525L219.294 421.483L201.276 410.667L84.3184 493.861C128.196 488.759 170.014 473.706 206.98 447.905C245.477 421.037 274.851 385.211 294.854 343.694L226.616 392.534ZM304.836 342.817C324.845 384.651 354.34 420.745 393.067 447.774C430.265 473.736 472.375 488.818 516.553 493.827L398.882 410.124L380.865 420.941L377.464 422.983L378.549 419.167L388.029 385.818L374.353 391.646L373.542 391.992L304.836 342.817ZM290.731 342.787C246.403 347.053 204.115 361.737 166.922 387.695C128.259 414.68 99.1345 451.035 79.8262 493.206L200.295 407.516L201.132 406.921L202.012 407.448L217.508 416.752L208.214 384.059L207.314 380.898L210.337 382.188L226.225 388.957L290.731 342.787ZM373.934 388.415L389.821 381.645L392.844 380.356L391.945 383.517L382.651 416.209L398.147 406.906L399.027 406.378L399.863 406.973L519.89 492.351C500.58 450.487 471.568 414.392 433.126 387.562C396.154 361.758 354.147 347.096 310.106 342.732L373.934 388.415ZM311.905 126.888C326.469 157.088 334.451 189.885 334.451 224.166C334.451 264.594 323.35 302.956 303.445 337.432C350.815 340.938 396.147 356.015 435.819 383.703C455.953 397.755 473.538 414.297 488.544 432.835L311.905 126.888ZM111.655 432.78C126.628 414.319 144.163 397.841 164.229 383.837C204.068 356.031 249.617 340.944 297.204 337.521C297.13 337.355 297.056 337.19 296.982 337.024C297.053 337.028 297.124 337.032 297.194 337.036C276.151 302.512 264.349 263.756 264.349 222.806C264.349 192.803 270.684 163.978 282.348 137.133L111.655 432.78ZM299.617 113.681C279.989 146.849 269.055 183.831 269.055 222.806C269.055 262.301 280.284 299.751 300.41 333.26C300.453 333.184 300.495 333.109 300.537 333.033V226.088L281.258 217.734L277.618 216.157L281.353 214.818L313.988 203.118L301.29 195.389L300.537 194.931V115.296C300.233 114.757 299.926 114.218 299.617 113.681ZM303.674 193.167L318.426 202.146L321.232 203.854L318.14 204.963L286.146 216.433L302.729 223.619L303.674 224.028V327.297C320.183 296.102 329.414 261.933 329.736 226.106L329.745 224.166C329.745 187.633 320.481 152.793 303.674 121.035V193.167Z" fill="url(#paint0_linear_207_8)"/>
<defs>
<linearGradient id="paint0_linear_207_8" x1="400.054" y1="215.878" x2="300.085" y2="502.447" gradientUnits="userSpaceOnUse">
<stop stop-color="#0AF2AD"/>
<stop offset="1" stop-color="#03B082"/>
</linearGradient>
</defs>
</svg>
