<svg width="600" height="600" viewBox="0 0 600 600" fill="none" xmlns="http://www.w3.org/2000/svg">
<path d="M475.459 248.678L199.813 432L268.74 428.722L560.667 420.921C560.669 421.003 560.666 420.841 560.667 420.921L560.667 420.914C552.936 356.252 523.022 294.569 475.459 248.678ZM180.753 183.907C120.536 207.213 77.0229 237.475 40.0014 290.83L199.813 432L180.753 183.907C180.681 183.934 180.824 183.879 180.753 183.907ZM519.1 304.582C520.276 306.485 521.429 308.402 522.559 310.331C521.437 308.42 520.285 306.502 519.1 304.582ZM306.46 169.744C289.36 167.899 270.071 167.336 249.619 168.946L249.279 168.972L249.152 169.288L199.813 432L414.828 204.86L415.549 204.33L414.747 203.931C414.56 203.838 414.368 203.738 414.17 203.639C405.829 199.077 397.182 194.885 388.243 191.089C361.989 179.942 333.434 172.812 306.46 169.744C306.982 169.801 305.94 169.685 306.46 169.744C306.609 169.76 306.31 169.728 306.46 169.744ZM475.459 248.678C475.307 248.531 475.611 248.825 475.459 248.678Z" fill="url(#paint0_radial_207_44)"/>
<defs>
<radialGradient id="paint0_radial_207_44" cx="0" cy="0" r="1" gradientTransform="matrix(576.6 250.736 311.201 -707.317 140.782 369.866)" gradientUnits="userSpaceOnUse">
<stop stop-color="#0AF2AD"/>
<stop offset="1" stop-color="#03B082"/>
</radialGradient>
</defs>
</svg>
